#!OML:ASF F:\VICON\USERDATA\INSTALL\rory3\rory3.ASF
:FULLY-SPECIFIED
:DEGREES
73
root -0.14561608314087 17.745684250734342 34.91208254966105 -0.5926628276298453 -6.653330928261884 -8.106890474401954
lfemur -27.348679921623457 -5.447575949565255 -6.984666615205068
ltibia 31.857057242191036
lfoot -3.9273546065259946 -4.124962631230411
ltoes -4.26770861036128
rfemur 4.693025104425669 4.9519517887478885 33.11191915061329
rtibia 37.873129325881564
rfoot -6.096528592877525 -3.0690738309438945
rtoes 4.464004361337452
lowerback 9.349567619001315 1.9508543794336837 5.6617776886007185
upperback 0.1594148456737466 3.2793630950286214 1.8571783012500598
thorax -4.976564829210167 1.312468401190559 -1.476551379285399
lowerneck -16.40129365128396 -2.9258406429847037 -2.048629830079805
upperneck 20.88431214840639 -3.45638284975838 1.3208121417809304
head 9.173226207414176 -1.7699555170747492 0.391756985743502
lclavicle -4.536376240336304e-16 -7.766933327343118e-16
lhumerus -37.8742609311212 10.183500436638628 79.55801718975194
lradius 20.815269021727886
lwrist 2.775884401473396
lhand -27.75784852961014 21.853039540094166
lfingers 7.12502
lthumb -0.6629435867940716 53.38855718523337
rclavicle -4.53550331974476e-16 -7.766258647739533e-16
rhumerus -19.795534067907383 -8.21105255466265 -82.66861867836099
rradius 27.080406275101982
rwrist 2.6684835501624615
rhand -18.10033945845132 22.834718254098686
rfingers 7.12502
rthumb 8.085284621553098 -7.117613366790879
74
root -0.10086107778403225 17.702222775071913 35.59937480603968 -0.5426908850374079 -6.947733651068514 -7.891528909046338
lfemur -26.100352865540685 -8.08888926581503 -6.618975149097938
ltibia 28.230061090995854
lfoot -4.090696502828444 -4.292803585509838
ltoes -4.07040706712006
rfemur 6.192028901946529 4.958333582201183 32.568103884468016
rtibia 39.360390739626396
rfoot -5.261076948684575 -2.6404614171208567
rtoes 4.596470576044684
lowerback 9.314428983673837 2.011442959866917 5.499839802636154
upperback 0.11343137815062244 3.280516213219898 1.7671681213260872
thorax -4.98906938221506 1.3270972222864015 -1.5549967001920295
lowerneck -16.39968106194278 -2.9144746426215233 -2.040734018892203
upperneck 20.790624761918956 -3.449068821633772 1.3634446646384397
head 9.177362546928036 -1.7639219897889038 0.4175367797121963
lclavicle -4.536376240336292e-16 -7.766933327343108e-16
lhumerus -38.26375258032303 11.364677814079494 78.95241764064764
lradius 21.345166319966836
lwrist 2.740349173087294
lhand -27.692267621228577 22.094771176615165
lfingers 7.12502
lthumb -0.6800691715206224 53.38536464509285
rclavicle -4.53550331974459e-16 -7.766258647739401e-16
rhumerus -19.38056234764108 -8.507910094300406 -82.78229520179939
rradius 27.371614306372898
rwrist 2.4734967637783347
rhand -18.08207977900783 22.870263921845982
rfingers 7.12502
rthumb 8.10333670108984 -7.0650555031299485
75
root -0.04582176265769272 17.671121230401358 36.354527482953294 -0.9148955967308889 -6.920668406479031 -7.373735270615676
lfemur -26.16726063576577 -5.952452009195069 -8.54901456459862
ltibia 27.134573623074793
lfoot -3.826154071163606 -4.2565056669854995
ltoes -3.5180244922745736
rfemur 6.46379697509283 4.787722997431167 31.644088028115803
rtibia 41.306291078481784
rfoot -4.1280653165230765 -2.1969000877218354
rtoes 4.957411914859318
lowerback 9.334673736120397 2.0231406823618374 5.1092381077489195
upperback 0.11701313362849161 3.4284202499498786 1.7328244207164
thorax -4.97359931162574 1.3741451234839217 -1.4484705310613044
lowerneck -16.415954220622258 -2.9178699661152776 -2.054431608017016
upperneck 20.68814695568467 -3.4788855612328775 1.3572480963895757
head 9.173840572276216 -1.76491768326055 0.42364753780228925
lclavicle -4.536376240336373e-16 -7.76693332734317e-16
lhumerus -38.70344365672078 12.3338617932041 78.3328527157702
lradius 21.965498948306404
lwrist 2.7688716100831763
lhand -27.86963460756976 21.657961514344244
lfingers 7.12502
lthumb -0.7566080358866636 53.19554254468297
rclavicle -4.535503319744629e-16 -7.766258647739431e-16
rhumerus -19.4918526580097 -9.135731851724957 -82.77184362048436
rradius 27.55580325070284
rwrist 2.4100775193009847
rhand -18.06561035618105 22.897862361432598
rfingers 7.12502
rthumb 8.117085526696563 -7.019918129398792
76
root 0.017609697035071648 17.660108907403448 37.26579855902418 -1.6219377910095247 -6.647252359194308 -6.594212719265214
lfemur -27.13945642371131 -3.8455642254061715 -10.80947676069701
ltibia 28.543405652927127
lfoot -4.80029610621461 -4.666167041301854
ltoes -2.5626081898494215
rfemur 6.030217532420362 4.3695068058393565 30.468669299536927
rtibia 43.69437231841937
rfoot -3.4718664175651153 -2.2018532718878028
rtoes 5.364507042482823
lowerback 9.426089456654404 2.013605979494798 4.603322744696974
upperback 0.10395057505037505 3.3748676488625255 1.6140482992214675
thorax -4.9961516500004315 1.3709343524902136 -1.375183634876568
lowerneck -16.418957320659498 -2.9184952053674684 -2.0617309063677887
upperneck 20.613182798176926 -3.5175538181900063 1.3490107140383478
head 9.175141135743438 -1.7607123831412679 0.4437419437232821
lclavicle -4.536376240335046e-16 -7.766933327342146e-16
lhumerus -39.18414700921461 13.107674743204106 77.72673681433658
lradius 22.6065477818046
lwrist 2.7742478177075323
lhand -27.747814223359658 22.02527796850181
lfingers 7.12502
lthumb -0.7236060167731204 53.30034394991864
rclavicle -4.535503319744269e-16 -7.766258647739153e-16
rhumerus -20.187146438102104 -10.111310787703156 -82.61260107399474
rradius 27.753837988118235
rwrist 2.3820534785287206
rhand -18.07414447519038 22.880271980579373
rfingers 7.12502
rthumb 8.130497905090724 -6.989003209484692
